<mxfile host="app.diagrams.net" agent="Mozilla/5.0 (Windows NT 10.0; Win64; x64) AppleWebKit/537.36 (KHTML, like Gecko) Chrome/128.0.0.0 Safari/537.36 Edg/128.0.0.0" version="24.7.8">
  <diagram name="Page-1" id="JC6Pw4brrWkaVMc4WsXk">
    <mxGraphModel dx="1426" dy="783" grid="1" gridSize="10" guides="1" tooltips="1" connect="1" arrows="1" fold="1" page="1" pageScale="1" pageWidth="850" pageHeight="1100" math="0" shadow="0">
      <root>
        <mxCell id="0" />
        <mxCell id="1" parent="0" />
        <mxCell id="JYS8QEYFgLn1H3hUx-rl-1" value="START" style="ellipse;whiteSpace=wrap;html=1;" vertex="1" parent="1">
          <mxGeometry x="320" y="50" width="120" height="80" as="geometry" />
        </mxCell>
        <mxCell id="JYS8QEYFgLn1H3hUx-rl-2" value="a: int = input(&lt;span style=&quot;color: rgb(106, 171, 115); font-family: &amp;quot;JetBrains Mono&amp;quot;, monospace; font-size: 9.8pt; background-color: rgb(30, 31, 34);&quot;&gt;&quot;The bigger number:&quot;&lt;/span&gt;&lt;span style=&quot;background-color: initial;&quot;&gt;)&lt;/span&gt;&lt;div&gt;b: int = input(&lt;span style=&quot;color: rgb(106, 171, 115); font-family: &amp;quot;JetBrains Mono&amp;quot;, monospace; font-size: 9.8pt; background-color: rgb(30, 31, 34);&quot;&gt;&quot;The smaller number:&quot;&lt;/span&gt;&lt;span style=&quot;background-color: initial;&quot;&gt;)&lt;/span&gt;&lt;span style=&quot;background-color: initial;&quot;&gt;&lt;br&gt;&lt;/span&gt;&lt;/div&gt;" style="shape=parallelogram;perimeter=parallelogramPerimeter;whiteSpace=wrap;html=1;fixedSize=1;" vertex="1" parent="1">
          <mxGeometry x="180" y="190" width="400" height="70" as="geometry" />
        </mxCell>
        <mxCell id="JYS8QEYFgLn1H3hUx-rl-4" style="edgeStyle=orthogonalEdgeStyle;rounded=0;orthogonalLoop=1;jettySize=auto;html=1;" edge="1" parent="1" source="JYS8QEYFgLn1H3hUx-rl-3">
          <mxGeometry relative="1" as="geometry">
            <mxPoint x="640" y="380" as="targetPoint" />
          </mxGeometry>
        </mxCell>
        <mxCell id="JYS8QEYFgLn1H3hUx-rl-10" style="edgeStyle=orthogonalEdgeStyle;rounded=0;orthogonalLoop=1;jettySize=auto;html=1;" edge="1" parent="1" source="JYS8QEYFgLn1H3hUx-rl-3">
          <mxGeometry relative="1" as="geometry">
            <mxPoint x="130" y="380" as="targetPoint" />
          </mxGeometry>
        </mxCell>
        <mxCell id="JYS8QEYFgLn1H3hUx-rl-3" value="if (a &amp;gt; b)" style="rhombus;whiteSpace=wrap;html=1;" vertex="1" parent="1">
          <mxGeometry x="250" y="320" width="250" height="120" as="geometry" />
        </mxCell>
        <mxCell id="JYS8QEYFgLn1H3hUx-rl-6" style="edgeStyle=orthogonalEdgeStyle;rounded=0;orthogonalLoop=1;jettySize=auto;html=1;exitX=0.5;exitY=1;exitDx=0;exitDy=0;" edge="1" parent="1" target="JYS8QEYFgLn1H3hUx-rl-8">
          <mxGeometry relative="1" as="geometry">
            <mxPoint x="640" y="460" as="targetPoint" />
            <mxPoint x="640" y="380" as="sourcePoint" />
          </mxGeometry>
        </mxCell>
        <mxCell id="JYS8QEYFgLn1H3hUx-rl-8" value="print (a)" style="shape=document;whiteSpace=wrap;html=1;boundedLbl=1;" vertex="1" parent="1">
          <mxGeometry x="500" y="420" width="280" height="80" as="geometry" />
        </mxCell>
        <mxCell id="JYS8QEYFgLn1H3hUx-rl-9" value="Yes" style="text;html=1;align=center;verticalAlign=middle;whiteSpace=wrap;rounded=0;" vertex="1" parent="1">
          <mxGeometry x="580" y="330" width="80" height="40" as="geometry" />
        </mxCell>
        <mxCell id="JYS8QEYFgLn1H3hUx-rl-11" style="edgeStyle=orthogonalEdgeStyle;rounded=0;orthogonalLoop=1;jettySize=auto;html=1;exitX=0.5;exitY=1;exitDx=0;exitDy=0;" edge="1" parent="1">
          <mxGeometry relative="1" as="geometry">
            <mxPoint x="130" y="460" as="targetPoint" />
            <mxPoint x="130" y="380" as="sourcePoint" />
          </mxGeometry>
        </mxCell>
        <mxCell id="JYS8QEYFgLn1H3hUx-rl-12" value="print (b)" style="shape=document;whiteSpace=wrap;html=1;boundedLbl=1;" vertex="1" parent="1">
          <mxGeometry x="50" y="460" width="220" height="80" as="geometry" />
        </mxCell>
        <mxCell id="JYS8QEYFgLn1H3hUx-rl-13" value="No" style="text;html=1;align=center;verticalAlign=middle;whiteSpace=wrap;rounded=0;" vertex="1" parent="1">
          <mxGeometry x="90" y="330" width="80" height="40" as="geometry" />
        </mxCell>
        <mxCell id="JYS8QEYFgLn1H3hUx-rl-14" style="edgeStyle=orthogonalEdgeStyle;rounded=0;orthogonalLoop=1;jettySize=auto;html=1;exitX=0.5;exitY=1;exitDx=0;exitDy=0;" edge="1" parent="1">
          <mxGeometry relative="1" as="geometry">
            <mxPoint x="129.5" y="620" as="targetPoint" />
            <mxPoint x="129.5" y="540" as="sourcePoint" />
          </mxGeometry>
        </mxCell>
        <mxCell id="JYS8QEYFgLn1H3hUx-rl-15" style="edgeStyle=orthogonalEdgeStyle;rounded=0;orthogonalLoop=1;jettySize=auto;html=1;exitX=0.5;exitY=1;exitDx=0;exitDy=0;" edge="1" parent="1">
          <mxGeometry relative="1" as="geometry">
            <mxPoint x="640" y="610" as="targetPoint" />
            <mxPoint x="639.5" y="500" as="sourcePoint" />
          </mxGeometry>
        </mxCell>
        <mxCell id="JYS8QEYFgLn1H3hUx-rl-17" value="" style="line;strokeWidth=2;html=1;" vertex="1" parent="1">
          <mxGeometry x="140" y="610" width="500" height="10" as="geometry" />
        </mxCell>
        <mxCell id="JYS8QEYFgLn1H3hUx-rl-18" style="edgeStyle=orthogonalEdgeStyle;rounded=0;orthogonalLoop=1;jettySize=auto;html=1;exitX=0.5;exitY=1;exitDx=0;exitDy=0;" edge="1" parent="1">
          <mxGeometry relative="1" as="geometry">
            <mxPoint x="374.5" y="710" as="targetPoint" />
            <mxPoint x="374.5" y="630" as="sourcePoint" />
          </mxGeometry>
        </mxCell>
        <mxCell id="JYS8QEYFgLn1H3hUx-rl-19" value="End" style="ellipse;whiteSpace=wrap;html=1;" vertex="1" parent="1">
          <mxGeometry x="315" y="710" width="120" height="80" as="geometry" />
        </mxCell>
        <mxCell id="JYS8QEYFgLn1H3hUx-rl-20" style="edgeStyle=orthogonalEdgeStyle;rounded=0;orthogonalLoop=1;jettySize=auto;html=1;" edge="1" parent="1">
          <mxGeometry relative="1" as="geometry">
            <mxPoint x="374.5" y="318" as="targetPoint" />
            <mxPoint x="375" y="268" as="sourcePoint" />
          </mxGeometry>
        </mxCell>
        <mxCell id="JYS8QEYFgLn1H3hUx-rl-21" style="edgeStyle=orthogonalEdgeStyle;rounded=0;orthogonalLoop=1;jettySize=auto;html=1;" edge="1" parent="1">
          <mxGeometry relative="1" as="geometry">
            <mxPoint x="384.5" y="183" as="targetPoint" />
            <mxPoint x="385" y="133" as="sourcePoint" />
          </mxGeometry>
        </mxCell>
      </root>
    </mxGraphModel>
  </diagram>
</mxfile>
